# xmcd CD database file
#
# Track frame offsets:
#	150
#	17713
#	31743
#	53741
#	77330
#	96970
#	114315
#	127242
#	143974
#	160056
#	171496
#	186835
#	204094
#
# Disc length: 2909 seconds
#
# Revision: 0
# Processed by: cddbd v1.5.1PL2 Copyright (c) Steve Scherf et al.
# Submitted via: CDex 1.51
#
DISCID=a50b5b0d
DTITLE=Dixie Chicks - Fly
DYEAR=1900
DGENRE=Country
TTITLE0=Ready To Run
TTITLE1=If I fall you're going down wi
TTITLE2=Cowboy take me away
TTITLE3=Cold day in july
TTITLE4=Goodbye Earl
TTITLE5=Hello Mr. Heartache
TTITLE6=Don't waste your heart
TTITLE7=Sin Wagon
TTITLE8=Without you
TTITLE9=Some days you gotta dance
TTITLE10=Hole in my head
TTITLE11=Heartbreak Town
TTITLE12=Let him fly
EXTD=
EXTT0=
EXTT1=
EXTT2=
EXTT3=
EXTT4=
EXTT5=
EXTT6=
EXTT7=
EXTT8=
EXTT9=
EXTT10=
EXTT11=
EXTT12=
PLAYORDER=
